<?xml version="1.0" standalone="no"?>
<!DOCTYPE svg PUBLIC "-//W3C//DTD SVG 20010904//EN"
 "http://www.w3.org/TR/2001/REC-SVG-20010904/DTD/svg10.dtd">
<svg version="1.0" xmlns="http://www.w3.org/2000/svg"
 width="50.000000pt" height="50.000000pt" viewBox="0 0 50.000000 50.000000"
 preserveAspectRatio="xMidYMid meet">

<g transform="translate(0.000000,50.000000) scale(0.100000,-0.100000)"
fill="#000000" stroke="none">
<path d="M138 423 l-108 -57 0 -163 0 -163 220 0 220 0 0 163 0 164 -109 56
c-60 32 -110 57 -112 57 -2 0 -52 -26 -111 -57z m216 -18 l96 -50 0 -147 0
-148 -25 0 -25 0 0 130 0 130 -150 0 -150 0 0 -130 0 -130 -25 0 -25 0 0 148
0 147 98 51 c53 29 100 51 103 50 4 0 50 -23 103 -51z m26 -225 l0 -120 -130
0 -130 0 0 120 0 120 130 0 130 0 0 -120z"/>
<path d="M210 90 c0 -5 18 -10 40 -10 22 0 40 5 40 10 0 6 -18 10 -40 10 -22
0 -40 -4 -40 -10z"/>
</g>
</svg>
